<?xml version="1.0" encoding="UTF-8"?>
<svg id="Layer_1" data-name="Layer 1" xmlns="http://www.w3.org/2000/svg" viewBox="0 0 150 60">
  <defs>
    <style>
      .cls-1 {
        fill: #9ac31c;
      }

      .cls-2 {
        fill: #2d2e87;
      }

      .cls-3 {
        fill: #2d2e87;
      }
    </style>
  </defs>
  <g>
    <g>
      <path class="cls-1" d="M39.24,7.3c-16.83,1.63-30.56,6.75-36.82,13.48l3.47,8.17h.02c.02-10.25,14.15-18.87,33.33-21.38v-.26Z"/>
      <path class="cls-1" d="M95.71,28.95s0,.01,0,.02c0,10.26-14.14,18.9-33.33,21.41v.26c16.83-1.63,30.57-6.75,36.82-13.48l-3.49-8.21Z"/>
    </g>
    <g>
      <path class="cls-3" d="M15.01,35.18v-15.14l3.76-1.6v13.33h5.68l1.46,3.42h-10.9Z"/>
      <path class="cls-3" d="M39.15,35.18v-12.31h3.64v1.69c.56-1.25,1.88-1.95,3.57-1.95.24,0,1.02.05,1.74.18l-1.37,3.23c-1.36-.49-3.93.34-3.93,3.16v6.01h-3.64Z"/>
      <path class="cls-3" d="M48.35,29c0-1.93.63-3.49,1.88-4.67,1.25-1.2,2.86-1.78,4.79-1.78s3.4.61,4.57,1.81,1.76,2.66,1.76,4.45c0,.42-.02.81-.05,1.17h-9.31c.07,1.47,1.34,2.42,3.27,2.42,1.15,0,2.15-.39,3-1.2l2.12,2.03c-1.44,1.49-3.22,2.25-5.3,2.25s-3.64-.59-4.89-1.73c-1.25-1.17-1.86-2.71-1.86-4.64v-.1ZM57.68,27.61c0-1.15-1.2-2.05-2.66-2.05-1.59,0-2.88.9-2.98,2.05h5.64Z"/>
      <path class="cls-3" d="M86.18,24.41c1.34,1.25,2,2.79,2,4.62s-.66,3.37-2,4.64c-1.34,1.25-2.96,1.88-4.84,1.88s-3.52-.64-4.86-1.88c-1.32-1.27-1.98-2.81-1.98-4.64s.66-3.37,1.98-4.62c1.34-1.27,2.96-1.91,4.86-1.91s3.49.63,4.84,1.91ZM79.07,31.32c.61.61,1.37.93,2.27.93s1.66-.32,2.27-.93c.61-.63.93-1.39.93-2.3s-.32-1.66-.93-2.27c-.61-.63-1.37-.95-2.27-.95s-1.66.32-2.27.95c-.61.61-.93,1.37-.93,2.27s.32,1.69.93,2.3Z"/>
      <path class="cls-3" d="M34.04,22.87c-.86,2-2.17,5.02-2.8,6.53-.1.24-.23.53-.37.85l-3.19-7.43-3.17,1.36,4.23,9.87c-.64.94-1.39,1.86-2.23,2.61l1.42,3.3c3.3-2.5,5.46-6.78,6.49-9.22.81-1.92,2.7-6.29,3.38-7.87h-3.76Z"/>
      <path class="cls-3" d="M69.56,32.2c-1.76,0-3.15-1.34-3.15-3.2s1.37-3.23,3.15-3.23c1.1,0,2.02.41,2.83,1.27l1.35-3.16c-1.2-.94-2.59-1.4-4.18-1.4-1.91,0-3.52.64-4.84,1.88-1.29,1.25-1.95,2.79-1.95,4.64s.66,3.4,1.95,4.64c1.32,1.25,2.93,1.86,4.84,1.86,1.56,0,2.93-.45,4.12-1.36l-1.34-3.15c-.79.81-1.7,1.21-2.77,1.21Z"/>
    </g>
  </g>
  <g>
    <path class="cls-2" d="M104.44,27.52l-1.63,7.74h7.99l2.06-9.65c-2.84.46-5.65,1.1-8.41,1.92Z"/>
    <path class="cls-2" d="M115.03,15.28l-10.51,4.47-.5,2.31c3.08-.3,6.31-.45,9.67-.47l1.34-6.31Z"/>
    <path class="cls-2" d="M131.32,22.6c.26-4.79-3.16-7.95-7.87-7.95h0c-4.63,0-7.79,2.64-8.97,6.95,5.63.01,11.25.35,16.84,1.01Z"/>
    <path class="cls-2" d="M113.65,25.48h0l-.14.7c-1.17,5.64,2.45,9.51,7.67,9.51,4.91,0,8.15-2.97,9.16-7.75l.72-3.42c-6.21-.18-12.07.14-17.4.96Z"/>
    <path class="cls-2" d="M141.3,14.65c-4.91,0-8.15,2.97-9.17,7.75l-.06.27c5.36.63,10.92,1.55,16.62,2.74l.26-1.25c1.18-5.64-2.45-9.51-7.66-9.51Z"/>
    <path class="cls-2" d="M131.69,24.55l-.34,1.64c-1.17,5.64,2.45,9.51,7.67,9.51,4.91,0,8.15-2.97,9.16-7.75l.37-1.74c-5.58-.91-11.2-1.47-16.85-1.67h0Z"/>
    <polygon class="cls-2" points="105.06 40.84 104.51 39.25 103.61 39.25 104.54 41.57 104.26 43.23 105.07 43.23 105.33 41.6 107.08 39.25 106.15 39.25 105.06 40.84"/>
    <polygon class="cls-2" points="113.78 39.25 113.27 39.25 112.59 43.23 113.1 43.23 113.36 43.23 115.06 43.23 115.18 42.54 113.48 42.54 113.67 41.45 115.25 41.45 115.37 40.78 113.78 40.78 113.93 39.94 115.62 39.94 115.74 39.25 114.05 39.25 113.78 39.25"/>
    <path class="cls-2" d="M121.18,43.23h.92l.56-.9h1.32l.25.9h.88l-1.24-4.23-2.7,4.23ZM122.96,41.68l.67-1.14.29,1.14h-.95Z"/>
    <path class="cls-2" d="M134,39.41c-.22-.11-.47-.17-.72-.16h-1.27l-.68,3.98h.79l.25-1.44h.35l.66,1.45h.9l-.79-1.54c.3-.09.56-.27.75-.51.15-.19.25-.43.28-.67.04-.23,0-.46-.09-.66-.1-.19-.26-.35-.45-.44ZM133.71,40.55c-.02.12-.07.23-.15.32-.08.09-.17.16-.29.2h0c-.12.05-.24.07-.37.07h-.42l.2-1.19h.47c.11,0,.22.02.32.07.09.05.16.12.2.21.04.1.05.21.03.32Z"/>
    <path class="cls-2" d="M142.09,39.92c.29-.12.62-.03.83.2.06.08.11.16.16.25l.65-.34c-.06-.16-.16-.3-.27-.43-.12-.13-.26-.24-.42-.31-.19-.08-.39-.12-.6-.12-.24,0-.47.04-.69.14-.2.09-.37.23-.51.4-.13.17-.21.38-.22.59,0,.15.01.29.07.43.05.12.12.23.21.32.09.09.19.17.29.24.1.06.2.12.31.16.14.06.26.12.36.17.1.04.18.11.25.19.06.08.09.18.08.28,0,.09-.04.18-.09.26-.06.08-.14.15-.23.19-.1.05-.21.08-.33.07-.13,0-.26-.03-.38-.09-.11-.06-.21-.15-.28-.26-.09-.12-.16-.24-.22-.38l-.61.41c.07.19.17.37.31.52.28.33.7.51,1.13.51.25,0,.5-.05.72-.16.22-.1.41-.26.56-.45.15-.19.23-.43.25-.67.02-.18-.02-.36-.09-.53-.07-.15-.18-.27-.31-.37-.13-.1-.28-.19-.44-.24-.1-.04-.2-.08-.29-.13-.09-.04-.17-.08-.24-.14-.06-.04-.12-.1-.16-.17-.04-.06-.06-.13-.05-.2,0-.16.11-.3.26-.35Z"/>
  </g>
</svg>